PathFileType	4	(X / Y / Z)	Demo_151852_11_September_2019	Demo_151852_11_September_2019.trc
DataRate	CameraRate	NumFrames	NumMarkers	Units	OrigDataRate	OrigDataStartFrame	OrigNumFrames
50	50	17	25	m	50	826	2071
Frame#	Time		SpineBase		SpineMid		Neck		Head		ShoulderLeft		ElbowLeft		WristLeft		HandLeft		ShoulderRight		ElbowRight		WristRight		HandRight		HipLeft		KneeLeft		AnkleLeft		FootLeft		HipRight		KneeRight		AnkleRight		FootRight		SpineShoulder		HandTipLeft		LeftThumb		HandTipRight		ThumbRight		
X1	Y1	Z1	X2	Y2	Z2	X3	Y3	Z3	X4	Y4	Z4	X5	Y5	Z5	X6	Y6	Z6	X7	Y7	Z7	X8	Y8	Z8	X9	Y9	Z9	X10	Y10	Z10	X11	Y11	Z11	X12	Y12	Z12	X13	Y13	Z13	X14	Y14	Z14	X15	Y15	Z15	X16	Y16	Z16	X17	Y17	Z17	X18	Y18	Z18	X19	Y19	Z19	X20	Y20	Z20	X21	Y21	Z21	X22	Y22	Z22	X23	Y23	Z23	X24	Y24	Z24	X25	Y25	Z25	
777	31.981	0.147	0.710	1.531	0.132	1.009	1.500	0.119	1.293	1.455	0.143	1.433	1.417	0.004	1.199	1.443	-0.009	1.018	1.301	0.060	1.214	1.370	0.092	1.257	1.410	0.291	1.175	1.453	0.473	1.005	1.487	0.623	0.895	1.525	0.691	0.836	1.539	0.072	0.720	1.505	-0.021	0.422	1.491	-0.018	0.268	1.518	-0.002	0.263	1.488	0.216	0.713	1.491	0.213	0.415	1.558	0.175	0.267	1.607	0.155	0.259	1.569	0.122	1.224	1.468	0.095	1.321	1.404	0.110	1.242	1.405	0.740	0.779	1.563	0.718	0.801	1.548
778	31.997	0.148	0.709	1.531	0.134	1.008	1.500	0.123	1.293	1.454	0.149	1.434	1.418	0.005	1.198	1.440	0.003	1.015	1.301	0.064	1.208	1.369	0.094	1.254	1.408	0.301	1.174	1.457	0.520	1.058	1.481	0.700	0.991	1.514	0.786	0.941	1.530	0.073	0.719	1.504	-0.020	0.421	1.491	0.053	0.112	1.570	0.103	0.103	1.489	0.217	0.712	1.492	0.213	0.414	1.558	0.175	0.266	1.607	0.155	0.258	1.569	0.125	1.223	1.468	0.097	1.321	1.400	0.115	1.239	1.403	0.856	0.894	1.546	0.794	0.932	1.531
779	32.014	0.148	0.709	1.531	0.134	1.008	1.500	0.123	1.293	1.454	0.149	1.434	1.418	0.005	1.198	1.440	0.003	1.015	1.301	0.064	1.208	1.369	0.094	1.254	1.408	0.301	1.174	1.457	0.520	1.058	1.481	0.700	0.991	1.514	0.786	0.941	1.530	0.073	0.719	1.504	-0.020	0.421	1.491	0.053	0.112	1.570	0.103	0.103	1.489	0.217	0.712	1.492	0.213	0.414	1.558	0.175	0.266	1.607	0.155	0.258	1.569	0.125	1.223	1.468	0.097	1.321	1.400	0.115	1.239	1.403	0.856	0.894	1.546	0.794	0.932	1.531
780	32.031	0.148	0.709	1.531	0.134	1.008	1.500	0.123	1.293	1.454	0.149	1.434	1.418	0.005	1.198	1.440	0.003	1.015	1.301	0.064	1.208	1.369	0.094	1.254	1.408	0.301	1.174	1.457	0.520	1.058	1.481	0.700	0.991	1.514	0.786	0.941	1.530	0.073	0.719	1.504	-0.020	0.421	1.491	0.053	0.112	1.570	0.103	0.103	1.489	0.217	0.712	1.492	0.213	0.414	1.558	0.175	0.266	1.607	0.155	0.258	1.569	0.125	1.223	1.468	0.097	1.321	1.400	0.115	1.239	1.403	0.856	0.894	1.546	0.794	0.932	1.531
781	32.047	0.148	0.709	1.531	0.134	1.008	1.500	0.123	1.293	1.454	0.149	1.434	1.418	0.005	1.198	1.440	0.003	1.015	1.301	0.064	1.208	1.369	0.094	1.254	1.408	0.301	1.174	1.457	0.520	1.058	1.481	0.700	0.991	1.514	0.786	0.941	1.530	0.073	0.719	1.504	-0.020	0.421	1.491	0.053	0.112	1.570	0.103	0.103	1.489	0.217	0.712	1.492	0.213	0.414	1.558	0.175	0.266	1.607	0.155	0.258	1.569	0.125	1.223	1.468	0.097	1.321	1.400	0.115	1.239	1.403	0.856	0.894	1.546	0.794	0.932	1.531
782	32.064	0.149	0.709	1.531	0.135	1.008	1.500	0.126	1.292	1.453	0.157	1.434	1.419	0.006	1.198	1.438	0.016	1.026	1.293	0.070	1.205	1.365	0.097	1.254	1.404	0.313	1.176	1.461	0.547	1.151	1.461	0.740	1.137	1.485	0.822	1.128	1.498	0.074	0.720	1.502	-0.020	0.421	1.493	0.093	0.040	1.598	0.139	0.022	1.486	0.218	0.711	1.493	0.212	0.413	1.557	0.174	0.265	1.607	0.156	0.258	1.570	0.128	1.223	1.467	0.098	1.322	1.397	0.119	1.237	1.402	0.930	1.104	1.513	0.870	1.120	1.506
783	32.081	0.149	0.709	1.531	0.135	1.008	1.500	0.126	1.292	1.453	0.157	1.434	1.419	0.006	1.198	1.438	0.016	1.026	1.293	0.070	1.205	1.365	0.097	1.254	1.404	0.313	1.176	1.461	0.547	1.151	1.461	0.740	1.137	1.485	0.822	1.128	1.498	0.074	0.720	1.502	-0.020	0.421	1.493	0.093	0.040	1.598	0.139	0.022	1.486	0.218	0.711	1.493	0.212	0.413	1.557	0.174	0.265	1.607	0.156	0.258	1.570	0.128	1.223	1.467	0.098	1.322	1.397	0.119	1.237	1.402	0.930	1.104	1.513	0.870	1.120	1.506
784	32.097	0.149	0.709	1.531	0.135	1.008	1.500	0.126	1.292	1.453	0.157	1.434	1.419	0.006	1.198	1.438	0.016	1.026	1.293	0.070	1.205	1.365	0.097	1.254	1.404	0.313	1.176	1.461	0.547	1.151	1.461	0.740	1.137	1.485	0.822	1.128	1.498	0.074	0.720	1.502	-0.020	0.421	1.493	0.093	0.040	1.598	0.139	0.022	1.486	0.218	0.711	1.493	0.212	0.413	1.557	0.174	0.265	1.607	0.156	0.258	1.570	0.128	1.223	1.467	0.098	1.322	1.397	0.119	1.237	1.402	0.930	1.104	1.513	0.870	1.120	1.506
785	32.114	0.149	0.710	1.531	0.136	1.008	1.500	0.130	1.293	1.452	0.165	1.435	1.419	0.007	1.199	1.435	0.023	1.039	1.285	0.075	1.205	1.360	0.099	1.254	1.399	0.321	1.178	1.463	0.559	1.220	1.448	0.748	1.239	1.464	0.836	1.249	1.474	0.073	0.723	1.499	-0.019	0.423	1.495	0.111	0.009	1.611	0.155	-0.013	1.485	0.218	0.712	1.494	0.210	0.412	1.556	0.174	0.265	1.606	0.156	0.257	1.571	0.131	1.223	1.466	0.100	1.324	1.395	0.121	1.236	1.400	0.946	1.273	1.485	0.825	1.269	1.481
786	32.131	0.149	0.710	1.531	0.136	1.008	1.500	0.130	1.293	1.452	0.165	1.435	1.419	0.007	1.199	1.435	0.023	1.039	1.285	0.075	1.205	1.360	0.099	1.254	1.399	0.321	1.178	1.463	0.559	1.220	1.448	0.748	1.239	1.464	0.836	1.249	1.474	0.073	0.723	1.499	-0.019	0.423	1.495	0.111	0.009	1.611	0.155	-0.013	1.485	0.218	0.712	1.494	0.210	0.412	1.556	0.174	0.265	1.606	0.156	0.257	1.571	0.131	1.223	1.466	0.100	1.324	1.395	0.121	1.236	1.400	0.946	1.273	1.485	0.825	1.269	1.481
787	32.148	0.148	0.713	1.531	0.138	1.008	1.499	0.133	1.293	1.450	0.172	1.435	1.419	0.012	1.205	1.424	0.026	1.044	1.281	0.080	1.206	1.356	0.101	1.256	1.395	0.340	1.192	1.465	0.562	1.257	1.442	0.754	1.326	1.454	0.840	1.353	1.454	0.073	0.727	1.495	-0.019	0.427	1.498	0.121	-0.009	1.617	0.162	-0.033	1.483	0.217	0.714	1.497	0.207	0.413	1.553	0.173	0.265	1.605	0.156	0.257	1.571	0.134	1.224	1.465	0.101	1.326	1.392	0.124	1.239	1.398	0.934	1.405	1.460	0.831	1.390	1.458
788	32.164	0.148	0.713	1.531	0.138	1.008	1.499	0.133	1.293	1.450	0.172	1.435	1.419	0.012	1.205	1.424	0.026	1.044	1.281	0.080	1.206	1.356	0.101	1.256	1.395	0.340	1.192	1.465	0.562	1.257	1.442	0.754	1.326	1.454	0.840	1.353	1.454	0.073	0.727	1.495	-0.019	0.427	1.498	0.121	-0.009	1.617	0.162	-0.033	1.483	0.217	0.714	1.497	0.207	0.413	1.553	0.173	0.265	1.605	0.156	0.257	1.571	0.134	1.224	1.465	0.101	1.326	1.392	0.124	1.239	1.398	0.934	1.405	1.460	0.831	1.390	1.458
789	32.181	0.148	0.716	1.531	0.139	1.010	1.498	0.137	1.294	1.448	0.178	1.436	1.419	0.014	1.208	1.417	0.030	1.048	1.278	0.085	1.208	1.351	0.103	1.257	1.391	0.348	1.198	1.466	0.557	1.276	1.440	0.720	1.371	1.438	0.794	1.421	1.436	0.072	0.731	1.492	-0.019	0.432	1.500	0.121	-0.011	1.616	0.157	-0.037	1.477	0.216	0.717	1.499	0.204	0.415	1.551	0.171	0.266	1.604	0.156	0.257	1.571	0.137	1.225	1.463	0.103	1.326	1.389	0.115	1.254	1.392	0.875	1.491	1.431	0.805	1.473	1.438
790	32.198	0.148	0.716	1.531	0.139	1.010	1.498	0.137	1.294	1.448	0.178	1.436	1.419	0.014	1.208	1.417	0.030	1.048	1.278	0.085	1.208	1.351	0.103	1.257	1.391	0.348	1.198	1.466	0.557	1.276	1.440	0.720	1.371	1.438	0.794	1.421	1.436	0.072	0.731	1.492	-0.019	0.432	1.500	0.121	-0.011	1.616	0.157	-0.037	1.477	0.216	0.717	1.499	0.204	0.415	1.551	0.171	0.266	1.604	0.156	0.257	1.571	0.137	1.225	1.463	0.103	1.326	1.389	0.115	1.254	1.392	0.875	1.491	1.431	0.805	1.473	1.438
791	32.214	0.147	0.721	1.530	0.141	1.012	1.497	0.140	1.295	1.447	0.184	1.436	1.418	0.017	1.210	1.412	0.032	1.050	1.276	0.089	1.210	1.347	0.106	1.258	1.387	0.353	1.206	1.467	0.558	1.300	1.437	0.721	1.444	1.425	0.788	1.502	1.420	0.072	0.735	1.490	-0.019	0.436	1.503	0.112	-0.001	1.611	0.143	-0.026	1.474	0.214	0.722	1.502	0.200	0.418	1.548	0.170	0.266	1.603	0.156	0.257	1.571	0.140	1.226	1.462	0.116	1.321	1.383	0.109	1.261	1.388	0.869	1.579	1.420	0.823	1.553	1.424
792	32.231	0.147	0.721	1.530	0.141	1.012	1.497	0.140	1.295	1.447	0.184	1.436	1.418	0.017	1.210	1.412	0.032	1.050	1.276	0.089	1.210	1.347	0.106	1.258	1.387	0.353	1.206	1.467	0.558	1.300	1.437	0.721	1.444	1.425	0.788	1.502	1.420	0.072	0.735	1.490	-0.019	0.436	1.503	0.112	-0.001	1.611	0.143	-0.026	1.474	0.214	0.722	1.502	0.200	0.418	1.548	0.170	0.266	1.603	0.156	0.257	1.571	0.140	1.226	1.462	0.116	1.321	1.383	0.109	1.261	1.388	0.869	1.579	1.420	0.823	1.553	1.424
793	32.248	0.146	0.726	1.530	0.143	1.014	1.496	0.143	1.296	1.445	0.188	1.436	1.418	0.018	1.212	1.408	0.035	1.051	1.275	0.094	1.211	1.345	0.108	1.259	1.384	0.357	1.213	1.467	0.552	1.317	1.436	0.703	1.455	1.421	0.753	1.527	1.408	0.072	0.739	1.488	-0.018	0.441	1.504	0.100	0.012	1.605	0.129	-0.012	1.471	0.213	0.727	1.504	0.198	0.421	1.546	0.169	0.266	1.603	0.156	0.257	1.571	0.143	1.227	1.460	0.140	1.312	1.377	0.106	1.269	1.383	0.839	1.612	1.410	0.823	1.588	1.418
